<svg width="116" height="116" viewBox="0 0 116 116" fill="none" xmlns="http://www.w3.org/2000/svg">
<path d="M56.7903 42.5908C57.9403 44.1708 58.51 46.0508 58.51 48.2608C58.51 50.4708 57.9403 52.3508 56.7703 53.7308C56.1203 54.5008 55.1601 55.2008 53.9001 55.8408C55.8201 56.5308 57.2702 57.6308 58.2502 59.1208C59.2202 60.6108 59.72 62.4309 59.72 64.5609C59.72 66.6909 59.1603 68.7408 58.0403 70.4808C57.3303 71.6308 56.4399 72.6108 55.3699 73.4008C54.1699 74.3108 52.7499 74.9308 51.1199 75.2708C49.4799 75.6108 47.71 75.7708 45.8 75.7708H28.8401V38.6309H47.03C51.62 38.7009 54.8703 40.0208 56.7903 42.5908ZM36.3401 45.0808V53.2708H45.49C47.12 53.2708 48.45 52.9608 49.47 52.3508C50.49 51.7408 51.0002 50.6508 51.0002 49.0908C51.0002 47.3508 50.3302 46.2208 48.9802 45.6608C47.8102 45.2808 46.33 45.0808 44.53 45.0808H36.3401ZM36.3401 59.4208V69.3208H45.4802C47.1102 69.3208 48.39 69.1008 49.3 68.6708C50.95 67.8608 51.7703 66.3208 51.7703 64.0308C51.7703 62.0908 50.9701 60.7708 49.3801 60.0408C48.4801 59.6408 47.2201 59.4308 45.6101 59.4208H36.3401ZM82.47 48.8708C84.42 49.7308 86.01 51.0808 87.28 52.9308C88.43 54.5608 89.1702 56.4608 89.5002 58.6108C89.7002 59.8708 89.77 61.6909 89.74 64.0609H69.4602C69.5802 66.8109 70.5401 68.7508 72.3801 69.8508C73.4901 70.5408 74.8201 70.8908 76.4001 70.8908C78.0501 70.8908 79.4002 70.4709 80.4402 69.6309C81.0102 69.1709 81.5102 68.5408 81.9402 67.7408H89.3699C89.1699 69.3708 88.2702 71.0208 86.6702 72.7108C84.1802 75.3808 80.68 76.7108 76.2 76.7108C72.49 76.7108 69.2201 75.5908 66.4001 73.3308C63.5601 71.0808 62.1501 67.4108 62.1501 62.3408C62.1501 57.5808 63.4302 53.9308 65.9802 51.3908C68.5402 48.8608 71.8599 47.5808 75.9299 47.5808C78.3599 47.5808 80.5402 48.0108 82.4802 48.8708H82.47ZM71.5798 55.0708C70.5498 56.1208 69.8999 57.5308 69.6399 59.3208H82.1902C82.0602 57.4108 81.4102 55.9708 80.2502 54.9808C79.0802 53.9908 77.6499 53.5009 75.9299 53.5009C74.0699 53.5009 72.6101 54.0308 71.5901 55.0708H71.5798ZM67.76 44.9908H83.8899V40.3708H67.76V44.9908Z" fill="#DADADA"/>
</svg>
