<svg width="116" height="116" viewBox="0 0 116 116" fill="none" xmlns="http://www.w3.org/2000/svg">
<path d="M69.4998 37.6611H68.9998V37.6817C66.7145 37.7797 65.114 38.555 64.0779 39.7528C62.9795 41.0226 62.5798 42.6931 62.5798 44.3212V51.7012V52.2012H63.0798H73.417L71.8208 62.5812H63.0798H62.5798V63.0812V90.1969C58.9496 90.8564 55.0253 91.0395 51.28 90.1861V63.0712V62.5712H50.78H41.28V52.1912H50.78H51.28V51.6912V43.0212C51.28 38.186 52.7183 34.4949 55.1976 32.0133C57.6773 29.5312 61.2562 28.2012 65.6501 28.2012C67.7735 28.2012 69.955 28.3915 71.6103 28.5828C72.4368 28.6784 73.1297 28.7739 73.6155 28.8455C73.7458 28.8647 73.8612 28.8822 73.9602 28.8974V37.6611H69.4998Z" fill="#DADADA" stroke="#DADADA"/>
</svg>
