<svg width="117" height="116" viewBox="0 0 117 116" fill="none" xmlns="http://www.w3.org/2000/svg">
<path fill-rule="evenodd" clip-rule="evenodd" d="M59.5703 12.4902C34.7703 12.4902 14.6702 32.5901 14.6702 57.3901C14.6702 77.2301 27.5399 94.0602 45.3799 100C47.6199 100.42 48.4502 99.0301 48.4502 97.8401C48.4502 96.7701 48.4101 93.2302 48.3901 89.4802C35.9001 92.2002 33.26 84.1802 33.26 84.1802C31.22 78.9902 28.27 77.6101 28.27 77.6101C24.2 74.8201 28.5801 74.8801 28.5801 74.8801C33.0901 75.2001 35.46 79.5103 35.46 79.5103C39.46 86.3703 45.9603 84.3902 48.5303 83.2402C48.9303 80.3402 50.0999 78.3602 51.3799 77.2402C41.4099 76.1102 30.9202 72.2503 30.9202 55.0503C30.9202 50.1503 32.67 46.1402 35.55 43.0002C35.08 41.8702 33.55 37.3001 35.98 31.1201C35.98 31.1201 39.7501 29.9102 48.3301 35.7202C51.9101 34.7202 55.7503 34.2302 59.5703 34.2102C63.3903 34.2302 67.2303 34.7302 70.8203 35.7202C79.3903 29.9102 83.1602 31.1201 83.1602 31.1201C85.6002 37.3101 84.0701 41.8702 83.6001 43.0002C86.4801 46.1402 88.2202 50.1503 88.2202 55.0503C88.2202 72.3003 77.7202 76.0902 67.7202 77.2102C69.3302 78.6002 70.77 81.3403 70.77 85.5303C70.77 91.5403 70.7202 96.3701 70.7202 97.8501C70.7202 99.0501 71.5303 100.45 73.8003 100C91.6303 94.0602 104.48 77.2301 104.48 57.4001C104.48 32.6001 84.3801 12.5002 59.5801 12.5002L59.5703 12.4902Z" fill="#DADADA"/>
<path d="M31.6702 76.9593C31.5702 77.1793 31.2202 77.2492 30.9002 77.0992C30.5702 76.9492 30.3901 76.6492 30.5001 76.4292C30.6001 76.1992 30.9501 76.1393 31.2701 76.2893C31.6001 76.4393 31.7802 76.7393 31.6702 76.9693V76.9593Z" fill="#DADADA"/>
<path d="M33.4901 78.9903C33.2801 79.1903 32.8601 79.1003 32.5701 78.7803C32.2801 78.4703 32.2203 78.0501 32.4403 77.8501C32.6603 77.6501 33.0702 77.7403 33.3602 78.0603C33.6502 78.3803 33.7101 78.7903 33.4901 78.9903Z" fill="#DADADA"/>
<path d="M35.26 81.5692C34.98 81.7592 34.53 81.5791 34.26 81.1791C33.98 80.7791 33.98 80.299 34.26 80.109C34.54 79.919 34.98 80.0891 35.26 80.4891C35.53 80.8991 35.53 81.3792 35.26 81.5692Z" fill="#DADADA"/>
<path d="M37.6901 84.0694C37.4401 84.3394 36.92 84.2693 36.54 83.8993C36.15 83.5393 36.04 83.0194 36.28 82.7494C36.53 82.4794 37.0601 82.5493 37.4401 82.9193C37.8301 83.2793 37.9501 83.7994 37.6901 84.0694Z" fill="#DADADA"/>
<path d="M41.0301 85.5197C40.9201 85.8697 40.4199 86.0296 39.9099 85.8796C39.3999 85.7296 39.0697 85.3097 39.1697 84.9597C39.2797 84.6097 39.7798 84.4396 40.2898 84.5996C40.7998 84.7496 41.1298 85.1597 41.0198 85.5197H41.0301Z" fill="#DADADA"/>
<path d="M44.71 85.7893C44.72 86.1593 44.2903 86.4692 43.7603 86.4692C43.2203 86.4792 42.7903 86.1793 42.7803 85.8193C42.7803 85.4493 43.2002 85.1391 43.7402 85.1291C44.2702 85.1191 44.71 85.4193 44.71 85.7893Z" fill="#DADADA"/>
<path d="M48.1299 85.2102C48.1899 85.5702 47.8201 85.9403 47.2901 86.0403C46.7701 86.1403 46.2902 85.9103 46.2202 85.5503C46.1602 85.1803 46.5303 84.8102 47.0503 84.7102C47.5803 84.6202 48.0601 84.8302 48.1201 85.2002L48.1299 85.2102Z" fill="#DADADA"/>
</svg>
