<svg width="117" height="116" viewBox="0 0 117 116" fill="none" xmlns="http://www.w3.org/2000/svg">
<path d="M59.4897 33.3608C67.3597 33.3608 68.2899 33.3909 71.3999 33.5309C74.2699 33.6609 75.8301 34.1409 76.8701 34.5409C78.2501 35.0709 79.2298 35.7108 80.2598 36.7408C81.2898 37.7708 81.93 38.7509 82.46 40.1309C82.86 41.1709 83.3402 42.7308 83.4702 45.6008C83.6102 48.7108 83.6401 49.6409 83.6401 57.5109C83.6401 65.3809 83.6102 66.3108 83.4702 69.4208C83.3402 72.2908 82.86 73.8509 82.46 74.8909C81.93 76.2709 81.2898 77.2509 80.2598 78.2809C79.2298 79.3109 78.2501 79.9508 76.8701 80.4808C75.8301 80.8808 74.2699 81.3608 71.3999 81.4908C68.2899 81.6308 67.3597 81.6609 59.4897 81.6609C51.6197 81.6609 50.6901 81.6308 47.5801 81.4908C44.7101 81.3608 43.1499 80.8808 42.1099 80.4808C40.7299 79.9508 39.75 79.3109 38.72 78.2809C37.69 77.2509 37.05 76.2709 36.52 74.8909C36.12 73.8509 35.64 72.2908 35.51 69.4208C35.37 66.3108 35.3401 65.3809 35.3401 57.5109C35.3401 49.6409 35.37 48.7108 35.51 45.6008C35.64 42.7308 36.12 41.1709 36.52 40.1309C37.05 38.7509 37.69 37.7708 38.72 36.7408C39.75 35.7108 40.7299 35.0709 42.1099 34.5409C43.1499 34.1409 44.7101 33.6609 47.5801 33.5309C50.6901 33.3909 51.6197 33.3608 59.4897 33.3608ZM59.4897 28.0508C51.4897 28.0508 50.4798 28.0808 47.3398 28.2308C44.1998 28.3708 42.0599 28.8708 40.1899 29.6008C38.2499 30.3508 36.61 31.3609 34.97 33.0009C33.33 34.6409 32.3201 36.2808 31.5701 38.2208C30.8401 40.0908 30.34 42.2408 30.2 45.3708C30.06 48.5108 30.02 49.5209 30.02 57.5209C30.02 65.5209 30.05 66.5308 30.2 69.6708C30.34 72.8108 30.8401 74.9508 31.5701 76.8208C32.3201 78.7608 33.33 80.4009 34.97 82.0409C36.61 83.6809 38.2499 84.6908 40.1899 85.4408C42.0599 86.1708 44.2098 86.6708 47.3398 86.8108C50.4798 86.9508 51.4897 86.9908 59.4897 86.9908C67.4897 86.9908 68.5001 86.9608 71.6401 86.8108C74.7801 86.6708 76.92 86.1708 78.79 85.4408C80.73 84.6908 82.3698 83.6809 84.0098 82.0409C85.6498 80.4009 86.6602 78.7608 87.4102 76.8208C88.1402 74.9508 88.6398 72.8008 88.7798 69.6708C88.9198 66.5308 88.96 65.5209 88.96 57.5209C88.96 49.5209 88.9298 48.5108 88.7798 45.3708C88.6398 42.2308 88.1402 40.0908 87.4102 38.2208C86.6602 36.2808 85.6498 34.6409 84.0098 33.0009C82.3698 31.3609 80.73 30.3508 78.79 29.6008C76.92 28.8708 74.7701 28.3708 71.6401 28.2308C68.5001 28.0908 67.4897 28.0508 59.4897 28.0508Z" fill="#DADADA"/>
<path d="M59.4897 42.3809C51.1297 42.3809 44.3599 49.1509 44.3599 57.5109C44.3599 65.8709 51.1297 72.6409 59.4897 72.6409C67.8497 72.6409 74.6201 65.8709 74.6201 57.5109C74.6201 49.1509 67.8497 42.3809 59.4897 42.3809ZM59.4897 67.3308C54.0697 67.3308 49.6699 62.9309 49.6699 57.5109C49.6699 52.0909 54.0697 47.6908 59.4897 47.6908C64.9097 47.6908 69.3101 52.0909 69.3101 57.5109C69.3101 62.9309 64.9097 67.3308 59.4897 67.3308Z" fill="#DADADA"/>
<path d="M75.2202 45.33C77.1753 45.33 78.7598 43.7451 78.7598 41.79C78.7598 39.835 77.1753 38.25 75.2202 38.25C73.2651 38.25 71.6802 39.835 71.6802 41.79C71.6802 43.7451 73.2651 45.33 75.2202 45.33Z" fill="#DADADA"/>
</svg>
