<svg width="116" height="116" viewBox="0 0 116 116" fill="none" xmlns="http://www.w3.org/2000/svg">
<path d="M84.2598 32.99C77.9298 26.65 69.51 23.1602 60.54 23.1602C42.06 23.1602 27.0098 38.2002 27.0098 56.6802C27.0098 62.5902 28.5497 68.3599 31.4897 73.4399L26.7297 90.8101L44.5098 86.1501C49.4098 88.8201 54.9198 90.23 60.5298 90.23H60.54C79.02 90.23 94.0698 75.19 94.0698 56.71C94.0698 47.75 90.5898 39.33 84.2598 32.99ZM60.54 84.5701H60.5298C55.5298 84.5701 50.6198 83.2199 46.3398 80.6899L45.3198 80.0901L34.7698 82.8601L37.5898 72.5801L36.9297 71.53C34.1397 67.09 32.6699 61.97 32.6699 56.7C32.6699 41.34 45.1798 28.8401 60.5498 28.8401C67.9898 28.8401 74.99 31.75 80.25 37.01C85.51 42.28 88.4097 49.28 88.4097 56.72C88.4097 72.08 75.9 84.5801 60.54 84.5801V84.5701ZM75.8301 63.7C74.9901 63.28 70.8696 61.25 70.0996 60.97C69.3296 60.69 68.77 60.5501 68.21 61.3901C67.65 62.2301 66.0501 64.1202 65.5601 64.6702C65.0701 65.2302 64.5797 65.3001 63.7397 64.8801C62.8997 64.4601 60.2 63.58 57 60.72C54.51 58.5 52.8298 55.7602 52.3398 54.9202C51.8498 54.0802 52.29 53.63 52.71 53.21C53.09 52.83 53.5497 52.23 53.9697 51.74C54.3897 51.25 54.5301 50.9001 54.8101 50.3401C55.0901 49.7801 54.9497 49.2901 54.7397 48.8701C54.5297 48.4501 52.8497 44.3301 52.1597 42.6501C51.4797 41.0201 50.79 41.24 50.27 41.21C49.78 41.19 49.2197 41.1802 48.6597 41.1802C48.0997 41.1802 47.1897 41.39 46.4297 42.23C45.6697 43.07 43.5 45.1 43.5 49.22C43.5 53.34 46.4999 57.3301 46.9199 57.8801C47.3399 58.4401 52.83 66.9 61.23 70.53C63.23 71.39 64.7898 71.91 66.0098 72.29C68.0198 72.93 69.84 72.8401 71.29 72.6201C72.9 72.3801 76.2497 70.5901 76.9497 68.6401C77.6497 66.6801 77.6499 65.0102 77.4399 64.6602C77.2299 64.3102 76.6701 64.1002 75.8301 63.6802V63.7Z" fill="#DADADA"/>
</svg>
